<?xml version="1.0" encoding="UTF-8" standalone="no"?>
<!--Generator: Apple Native CoreSVG 341-->

<svg
   version="1.1"
   viewBox="0 0 3300 2200"
   id="svg33"
   sodipodi:docname="kakera_icon_template.svg"
   inkscape:version="1.4.2 (ebf0e940, 2025-05-08)"
   xmlns:inkscape="http://www.inkscape.org/namespaces/inkscape"
   xmlns:sodipodi="http://sodipodi.sourceforge.net/DTD/sodipodi-0.dtd"
   xmlns="http://www.w3.org/2000/svg"
   xmlns:svg="http://www.w3.org/2000/svg">
  <defs
     id="defs33" />
  <sodipodi:namedview
     id="namedview33"
     pagecolor="#ffffff"
     bordercolor="#000000"
     borderopacity="0.25"
     inkscape:showpageshadow="2"
     inkscape:pageopacity="0.0"
     inkscape:pagecheckerboard="0"
     inkscape:deskcolor="#d1d1d1"
     inkscape:zoom="4.3339667"
     inkscape:cx="2918.112"
     inkscape:cy="657.01936"
     inkscape:window-width="1600"
     inkscape:window-height="702"
     inkscape:window-x="517"
     inkscape:window-y="299"
     inkscape:window-maximized="0"
     inkscape:current-layer="Black-S" />
  <!--glyph: "100184", point size: 100.0, font version: "20.0d10e1", template writer version: "138.0.0"-->
  <style
     id="style1">.SFSymbolsPreviewWireframe {fill:none;opacity:1.0;stroke:black;stroke-width:0.5}
</style>
  <g
     id="Notes"
     transform="translate(-2.2040021,33.060032)">
    <rect
       height="2200"
       id="artboard"
       style="opacity:1;fill:#ffffff"
       width="3300"
       x="0"
       y="0" />
    <line
       style="opacity:1;fill:none;stroke:#000000;stroke-width:0.5"
       x1="263"
       x2="3036"
       y1="292"
       y2="292"
       id="line1" />
    <text
       style="font-weight:bold;font-size:13px;font-family:sans-serif;fill:#000000;stroke:none"
       transform="translate(263,322)"
       id="text1">Weight/Scale Variations</text>
    <text
       style="font-size:13px;font-family:sans-serif;text-anchor:middle;fill:#000000;stroke:none"
       transform="translate(559.711,322)"
       id="text2">Ultralight</text>
    <text
       style="font-size:13px;font-family:sans-serif;text-anchor:middle;fill:#000000;stroke:none"
       transform="translate(856.422,322)"
       id="text3">Thin</text>
    <text
       style="font-size:13px;font-family:sans-serif;text-anchor:middle;fill:#000000;stroke:none"
       transform="translate(1153.13,322)"
       id="text4">Light</text>
    <text
       style="font-size:13px;font-family:sans-serif;text-anchor:middle;fill:#000000;stroke:none"
       transform="translate(1449.84,322)"
       id="text5">Regular</text>
    <text
       style="font-size:13px;font-family:sans-serif;text-anchor:middle;fill:#000000;stroke:none"
       transform="translate(1746.56,322)"
       id="text6">Medium</text>
    <text
       style="font-size:13px;font-family:sans-serif;text-anchor:middle;fill:#000000;stroke:none"
       transform="translate(2043.27,322)"
       id="text7">Semibold</text>
    <text
       style="font-size:13px;font-family:sans-serif;text-anchor:middle;fill:#000000;stroke:none"
       transform="translate(2339.98,322)"
       id="text8">Bold</text>
    <text
       style="font-size:13px;font-family:sans-serif;text-anchor:middle;fill:#000000;stroke:none"
       transform="translate(2636.69,322)"
       id="text9">Heavy</text>
    <text
       style="font-size:13px;font-family:sans-serif;text-anchor:middle;fill:#000000;stroke:none"
       transform="translate(2933.4,322)"
       id="text10">Black</text>
    <line
       style="opacity:1;fill:none;stroke:#000000;stroke-width:0.5"
       x1="263"
       x2="3036"
       y1="1903"
       y2="1903"
       id="line10" />
    <g
       transform="matrix(0.2,0,0,0.2,263,1933)"
       id="g10">
      <path
         d="m 46.2402,4.15039 c 21.7773,0 39.4531,-17.627 39.4531,-39.4043 0,-21.7773 -17.6758,-39.4043 -39.4531,-39.4043 -21.7285,0 -39.4043,17.627 -39.4043,39.4043 0,21.7773 17.6758,39.4043 39.4043,39.4043 z m 0,-7.42188 c -17.6758,0 -31.9336,-14.3066 -31.9336,-31.9824 0,-17.6758 14.2578,-31.9824 31.9336,-31.9824 17.6758,0 31.9824,14.3066 31.9824,31.9824 0,17.6758 -14.3066,31.9824 -31.9824,31.9824 z m -17.9688,-31.9824 c 0,2.14844 1.51367,3.61328 3.75977,3.61328 h 10.498 v 10.5957 c 0,2.19727 1.46484,3.71094 3.61328,3.71094 2.24609,0 3.71094,-1.51367 3.71094,-3.71094 v -10.5957 h 10.5957 c 2.19727,0 3.71094,-1.46484 3.71094,-3.61328 0,-2.19727 -1.51367,-3.71094 -3.71094,-3.71094 h -10.5957 v -10.5469 c 0,-2.24609 -1.46484,-3.75977 -3.71094,-3.75977 -2.14844,0 -3.61328,1.51367 -3.61328,3.75977 v 10.5469 h -10.498 c -2.24609,0 -3.75977,1.51367 -3.75977,3.71094 z"
         id="path10" />
    </g>
    <g
       transform="matrix(0.2,0,0,0.2,281.506,1933)"
       id="g11">
      <path
         d="m 58.5449,14.5508 c 27.4902,0 49.8047,-22.3145 49.8047,-49.8047 0,-27.4902 -22.3145,-49.8047 -49.8047,-49.8047 -27.4902,0 -49.8047,22.3145 -49.8047,49.8047 0,27.4902 22.3145,49.8047 49.8047,49.8047 z m 0,-8.30078 c -22.9492,0 -41.5039,-18.5547 -41.5039,-41.5039 0,-22.9492 18.5547,-41.5039 41.5039,-41.5039 22.9492,0 41.5039,18.5547 41.5039,41.5039 0,22.9492 -18.5547,41.5039 -41.5039,41.5039 z m -22.6562,-41.5039 c 0,2.39258 1.66016,4.00391 4.15039,4.00391 h 14.3555 v 14.4043 c 0,2.44141 1.66016,4.15039 4.05273,4.15039 2.44141,0 4.15039,-1.66016 4.15039,-4.15039 v -14.4043 h 14.4043 c 2.44141,0 4.15039,-1.61133 4.15039,-4.00391 0,-2.44141 -1.70898,-4.15039 -4.15039,-4.15039 h -14.4043 v -14.3555 c 0,-2.49023 -1.70898,-4.19922 -4.15039,-4.19922 -2.39258,0 -4.05273,1.70898 -4.05273,4.19922 v 14.3555 h -14.3555 c -2.49023,0 -4.15039,1.70898 -4.15039,4.15039 z"
         id="path11" />
    </g>
    <g
       transform="matrix(0.2,0,0,0.2,304.924,1933)"
       id="g12">
      <path
         d="m 74.8535,28.3203 c 35.1074,0 63.623,-28.4668 63.623,-63.5742 0,-35.1074 -28.5156,-63.623 -63.623,-63.623 -35.1074,0 -63.5742,28.5156 -63.5742,63.623 0,35.1074 28.4668,63.5742 63.5742,63.5742 z m 0,-9.08203 c -30.127,0 -54.4922,-24.3652 -54.4922,-54.4922 0,-30.127 24.3652,-54.4922 54.4922,-54.4922 30.127,0 54.4922,24.3652 54.4922,54.4922 0,30.127 -24.3652,54.4922 -54.4922,54.4922 z m -28.8574,-54.4922 c 0,2.58789 1.85547,4.39453 4.58984,4.39453 h 19.7266 v 19.7754 c 0,2.68555 1.85547,4.58984 4.44336,4.58984 2.68555,0 4.54102,-1.85547 4.54102,-4.58984 v -19.7754 h 19.7754 c 2.68555,0 4.58984,-1.80664 4.58984,-4.39453 0,-2.73438 -1.85547,-4.58984 -4.58984,-4.58984 h -19.7754 v -19.7266 c 0,-2.73438 -1.85547,-4.63867 -4.54102,-4.63867 -2.58789,0 -4.44336,1.9043 -4.44336,4.63867 v 19.7266 h -19.7266 c -2.73438,0 -4.58984,1.85547 -4.58984,4.58984 z"
         id="path12" />
    </g>
    <text
       style="font-weight:bold;font-size:13px;font-family:sans-serif;fill:#000000;stroke:none"
       transform="translate(263,1953)"
       id="text12">Design Variations</text>
    <text
       style="font-size:13px;font-family:sans-serif;fill:#000000;stroke:none"
       transform="translate(263,1971)"
       id="text13">Symbols are supported in up to nine weights and three scales.</text>
    <text
       style="font-size:13px;font-family:sans-serif;fill:#000000;stroke:none"
       transform="translate(263,1989)"
       id="text14">For optimal layout with text and other symbols, vertically align</text>
    <text
       style="font-size:13px;font-family:sans-serif;fill:#000000;stroke:none"
       transform="translate(263,2007)"
       id="text15">symbols with the adjacent text.</text>
    <line
       style="opacity:1;fill:none;stroke:#00aeef;stroke-width:0.5"
       x1="776"
       x2="776"
       y1="1919"
       y2="1933"
       id="line15" />
    <g
       transform="matrix(0.2,0,0,0.2,776,1933)"
       id="g15">
      <path
         d="m 16.5527,0.78125 c 2.58789,0 3.85742,-0.976562 4.78516,-3.71094 l 6.29883,-17.2363 h 28.8086 l 6.29883,17.2363 c 0.927734,2.73438 2.19727,3.71094 4.73633,3.71094 2.58789,0 4.24805,-1.5625 4.24805,-4.00391 0,-0.830078 -0.146484,-1.61133 -0.537109,-2.63672 l -22.9004,-60.9863 c -1.12305,-2.97852 -3.125,-4.49219 -6.25,-4.49219 -3.02734,0 -5.07812,1.46484 -6.15234,4.44336 l -22.9004,61.084 c -0.390625,1.02539 -0.537109,1.80664 -0.537109,2.63672 0,2.44141 1.5625,3.95508 4.10156,3.95508 z m 13.4766,-28.3691 11.8652,-32.8613 h 0.244141 l 11.8652,32.8613 z"
         id="path15" />
    </g>
    <line
       style="opacity:1;fill:none;stroke:#00aeef;stroke-width:0.5"
       x1="792.836"
       x2="792.836"
       y1="1919"
       y2="1933"
       id="line16" />
    <text
       style="font-weight:bold;font-size:13px;font-family:sans-serif;fill:#000000;stroke:none"
       transform="translate(776,1953)"
       id="text16">Margins</text>
    <text
       style="font-size:13px;font-family:sans-serif;fill:#000000;stroke:none"
       transform="translate(776,1971)"
       id="text17">Leading and trailing margins on the left and right side of each symbol</text>
    <text
       style="font-size:13px;font-family:sans-serif;fill:#000000;stroke:none"
       transform="translate(776,1989)"
       id="text18">can be adjusted by modifying the x-location of the margin guidelines.</text>
    <text
       style="font-size:13px;font-family:sans-serif;fill:#000000;stroke:none"
       transform="translate(776,2007)"
       id="text19">Modifications are automatically applied proportionally to all</text>
    <text
       style="font-size:13px;font-family:sans-serif;fill:#000000;stroke:none"
       transform="translate(776,2025)"
       id="text20">scales and weights.</text>
    <g
       transform="matrix(0.2,0,0,0.2,1289,1933)"
       id="g20">
      <path
         d="m 14.209,9.32617 8.49609,8.54492 c 4.29688,4.3457 9.22852,4.05273 13.8672,-1.07422 l 53.4668,-58.9355 -4.83398,-4.88281 -53.0762,58.3984 c -1.75781,2.00195 -3.41797,2.49023 -5.76172,0.146484 l -5.85938,-5.81055 c -2.34375,-2.29492 -1.80664,-4.00391 0.195312,-5.81055 l 57.373,-54.0039 -4.88281,-4.83398 -57.959,54.4434 c -4.93164,4.58984 -5.32227,9.47266 -1.02539,13.8184 z m 32.0801,-90.9668 c -2.09961,2.05078 -2.24609,4.93164 -1.07422,6.88477 1.17188,1.80664 3.4668,2.97852 6.68945,2.14844 7.32422,-1.70898 14.9414,-2.00195 22.0703,2.68555 l -2.92969,7.27539 c -1.70898,4.15039 -0.830078,7.08008 1.85547,9.81445 l 11.4746,11.5723 c 2.44141,2.44141 4.49219,2.53906 7.32422,2.05078 l 5.32227,-0.976562 3.32031,3.36914 -0.19531,2.7832 c -0.195314,2.49023 0.43945,4.39453 2.88086,6.78711 l 3.80859,3.71094 c 2.39258,2.39258 5.46875,2.53906 7.8125,0.195312 l 14.5508,-14.5996 c 2.34375,-2.34375 2.24609,-5.32227 -0.14649,-7.71484 l -3.85742,-3.80859 c -2.39258,-2.39258 -4.24805,-3.17383 -6.64062,-2.97852 l -2.88086,0.244141 -3.22266,-3.17383 1.2207,-5.61523 c 0.63477,-2.83203 -0.14648,-5.0293 -3.07617,-7.95898 l -10.986296,-10.9375 c -16.6992,-16.6016 -38.8672,-16.2109 -53.3203,-1.75781 z m 7.4707,1.85547 c 12.1582,-8.88672 28.6133,-7.37305 39.7461,3.75977 l 12.1582,12.0605 c 1.17188,1.17188 1.36719,2.09961 1.02539,3.80859 l -1.61133,7.42188 7.51953,7.42188 4.93164,-0.292969 c 1.26953,-0.04883 1.66016,0.04883 2.63672,1.02539 l 2.88086,2.88086 -12.207,12.207 -2.88086,-2.88086 c -0.97656,-0.976562 -1.12305,-1.36719 -1.07422,-2.68555 l 0.3418,-4.88281 -7.470703,-7.42188 -7.61719,1.26953 c -1.61133,0.341797 -2.34375,0.195312 -3.56445,-0.976562 l -10.0098,-10.0098 c -1.26953,-1.17188 -1.41602,-2.00195 -0.634766,-3.85742 l 4.39453,-10.4492 c -7.8125,-7.27539 -17.9688,-10.4004 -28.125,-7.42188 -0.78125,0.195312 -1.07422,-0.439453 -0.439453,-0.976562 z"
         id="path20" />
    </g>
    <text
       style="font-weight:bold;font-size:13px;font-family:sans-serif;fill:#000000;stroke:none"
       transform="translate(1289,1953)"
       id="text21">Exporting</text>
    <text
       style="font-size:13px;font-family:sans-serif;fill:#000000;stroke:none"
       transform="translate(1289,1971)"
       id="text22">Symbols should be outlined when exporting to ensure the</text>
    <text
       style="font-size:13px;font-family:sans-serif;fill:#000000;stroke:none"
       transform="translate(1289,1989)"
       id="text23">design is preserved when submitting to Xcode.</text>
    <text
       id="template-version"
       style="font-size:13px;font-family:sans-serif;text-anchor:end;fill:#000000;stroke:none"
       transform="translate(3036,1933)">Template v.6.0</text>
    <text
       style="font-size:13px;font-family:sans-serif;text-anchor:end;fill:#000000;stroke:none"
       transform="translate(3036,1951)"
       id="text24">Requires Xcode 16 or greater</text>
    <text
       id="descriptive-name"
       style="font-size:13px;font-family:sans-serif;text-anchor:end;fill:#000000;stroke:none"
       transform="translate(3036,1969)">Generated from xmark</text>
    <text
       style="font-size:13px;font-family:sans-serif;text-anchor:end;fill:#000000;stroke:none"
       transform="translate(3036,1987)"
       id="text25">Typeset at 100.0 points</text>
    <text
       style="font-size:13px;font-family:sans-serif;fill:#000000;stroke:none"
       transform="translate(263,726)"
       id="text26">Small</text>
    <text
       style="font-size:13px;font-family:sans-serif;fill:#000000;stroke:none"
       transform="translate(263,1156)"
       id="text27">Medium</text>
    <text
       style="font-size:13px;font-family:sans-serif;fill:#000000;stroke:none"
       transform="translate(263,1586)"
       id="text28">Large</text>
  </g>
  <g
     id="Guides">
    <g
       id="H-reference"
       style="fill:#27AAE1;stroke:none;"
       transform="matrix(1 0 0 1 339 696)">
      <path
         d="M0.993654 0L3.63775 0L29.3281-67.1323L30.0303-67.1323L30.0303-70.459L28.1226-70.459ZM11.6885-24.4799L46.9815-24.4799L46.2315-26.7285L12.4385-26.7285ZM55.1196 0L57.7637 0L30.6382-70.459L29.4326-70.459L29.4326-67.1323Z"
         id="path28" />
    </g>
    <line
       id="Baseline-S"
       style="fill:none;stroke:#27AAE1;opacity:1;stroke-width:0.5;"
       x1="263"
       x2="3036"
       y1="696"
       y2="696" />
    <line
       id="Capline-S"
       style="fill:none;stroke:#27AAE1;opacity:1;stroke-width:0.5;"
       x1="263"
       x2="3036"
       y1="625.541"
       y2="625.541" />
    <g
       id="g29"
       style="fill:#27AAE1;stroke:none;"
       transform="matrix(1 0 0 1 339 1126)">
      <path
         d="M0.993654 0L3.63775 0L29.3281-67.1323L30.0303-67.1323L30.0303-70.459L28.1226-70.459ZM11.6885-24.4799L46.9815-24.4799L46.2315-26.7285L12.4385-26.7285ZM55.1196 0L57.7637 0L30.6382-70.459L29.4326-70.459L29.4326-67.1323Z"
         id="path29" />
    </g>
    <line
       id="Baseline-M"
       style="fill:none;stroke:#27AAE1;opacity:1;stroke-width:0.5;"
       x1="263"
       x2="3036"
       y1="1126"
       y2="1126" />
    <line
       id="Capline-M"
       style="fill:none;stroke:#27AAE1;opacity:1;stroke-width:0.5;"
       x1="263"
       x2="3036"
       y1="1055.54"
       y2="1055.54" />
    <g
       id="g30"
       style="fill:#27AAE1;stroke:none;"
       transform="matrix(1 0 0 1 339 1556)">
      <path
         d="M0.993654 0L3.63775 0L29.3281-67.1323L30.0303-67.1323L30.0303-70.459L28.1226-70.459ZM11.6885-24.4799L46.9815-24.4799L46.2315-26.7285L12.4385-26.7285ZM55.1196 0L57.7637 0L30.6382-70.459L29.4326-70.459L29.4326-67.1323Z"
         id="path30" />
    </g>
    <line
       id="Baseline-L"
       style="fill:none;stroke:#27AAE1;opacity:1;stroke-width:0.5;"
       x1="263"
       x2="3036"
       y1="1556"
       y2="1556" />
    <line
       id="Capline-L"
       style="fill:none;stroke:#27AAE1;opacity:1;stroke-width:0.5;"
       x1="263"
       x2="3036"
       y1="1485.54"
       y2="1485.54" />
    <line
       id="right-margin-Black-S"
       style="fill:none;stroke:#00AEEF;stroke-width:0.5;opacity:1.0;"
       x1="2976.34"
       x2="2976.34"
       y1="600.785"
       y2="720.121" />
    <line
       id="left-margin-Black-S"
       style="fill:none;stroke:#00AEEF;stroke-width:0.5;opacity:1.0;"
       x1="2890.46"
       x2="2890.46"
       y1="600.785"
       y2="720.121" />
    <line
       id="right-margin-Regular-S"
       style="fill:none;stroke:#00AEEF;stroke-width:0.5;opacity:1.0;"
       x1="1490.27"
       x2="1490.27"
       y1="600.785"
       y2="720.121" />
    <line
       id="left-margin-Regular-S"
       style="fill:none;stroke:#00AEEF;stroke-width:0.5;opacity:1.0;"
       x1="1409.41"
       x2="1409.41"
       y1="600.785"
       y2="720.121" />
    <line
       id="right-margin-Ultralight-S"
       style="fill:none;stroke:#00AEEF;stroke-width:0.5;opacity:1.0;"
       x1="598.279"
       x2="598.279"
       y1="600.785"
       y2="720.121" />
    <line
       id="left-margin-Ultralight-S"
       style="fill:none;stroke:#00AEEF;stroke-width:0.5;opacity:1.0;"
       x1="521.143"
       x2="521.143"
       y1="600.785"
       y2="720.121" />
  </g>
  <g
     id="Symbols">
    <g
       id="Black-S"
       transform="matrix(1 0 0 1 2890.46 696)">
      <path
         id="Selection #1-7-5"
         fill="none"
         stroke="#000000"
         stroke-width="0.0369802"
         d="m 1522.8009,-39.014955 c 0,0 -0.3912,1.849 -0.3912,1.849 0,0 -0.8506,3.88293 -0.8506,3.88293 0,0 -1.5901,7.24812 -1.5901,7.24812 0,0 -0.6857,3.14331 -0.6857,3.14331 0,0 -0.8168,3.73501 -0.8168,3.73501 -0.019,0.0881 -0.057,0.20893 -0.039,0.29584 0.02,0.0995 0.098,0.17343 0.132,0.33282 0.056,0.26034 -0.098,0.50737 -0.3439,0.5976 -0.3347,0.12352 -0.7526,0.20118 -0.9404,-0.19081 -0.092,-0.19119 -0.013,-0.28919 -0.1128,-0.44376 0,0 -0.7374,-0.81358 -0.7374,-0.81358 0,0 -0.4249,-0.44375 -0.4249,-0.44375 0,0 -1.6272,-1.73808 -1.6272,-1.73808 0,0 -1.5901,-1.70109 -1.5901,-1.70109 0,0 -0.8542,-0.9245 -0.8542,-0.9245 0,0 -1.5562,-1.66411 -1.5562,-1.66411 0,0 -2.1448,-2.29277 -2.1448,-2.29277 0,0 -7.8702,-8.39452 -7.8702,-8.39452 0,0 -2.6995,-2.88445 -2.6995,-2.88445 0,0 -1.3361,-1.44223 -1.3361,-1.44223 0,0 -2.6644,-2.84747 -2.6644,-2.84747 0,0 -1.5284,-1.62714 -1.5284,-1.62714 0,0 -1.0096,-1.07243 -1.0096,-1.07243 -0.1424,-0.16196 -0.3199,-0.32912 -0.3391,-0.5547 -0.013,-0.15162 0.028,-0.22484 0.028,-0.31137 -8e-4,-0.10799 -0.084,-0.33282 0.021,-0.53844 0.095,-0.18379 0.3276,-0.28659 0.5011,-0.38607 0,0 1.1464,-0.66047 1.1464,-0.66047 0,0 5.2512,-3.03755 5.2512,-3.03755 0,0 9.5409,-5.51597 9.5409,-5.51597 0,0 13.2389,-7.64899 13.2389,-7.64899 0,0 6.3606,-3.67695 6.3606,-3.67695 0,0 0.9984,-0.57578 0.9984,-0.57578 0.4083,-0.23704 0.5558,-0.41787 1.0355,-0.26181 0.1161,0.0376 0.1967,0.0555 0.2921,0.13977 0.095,0.0839 0.1624,0.196 0.1809,0.32247 0.028,0.19563 -0.1642,0.90566 -0.2142,1.1464 0,0 -0.9289,4.25272 -0.9289,4.25272 0,0 -1.1575,5.28818 -1.1575,5.28818 0,0 -1.5221,6.91529 -1.5221,6.91529 0,0 -0.7766,3.5501 -0.7766,3.5501 0,0 -0.4223,1.92297 -0.4223,1.92297 0,0 15.9755,-4.749 15.9755,-4.749 0,0 4.8814,-1.45331 4.8814,-1.45331 0,0 1.5531,-0.46485 1.5531,-0.46485 0.1823,-0.0525 0.6158,-0.19673 0.7766,-0.20745 0.2811,-0.0193 0.5063,0.11869 0.5725,0.40308 0.032,0.14126 -0.01,0.2215 0,0.33281 0.01,0.12722 0.077,0.2352 0.042,0.40679 -0.035,0.17084 -0.402,0.80654 -0.5085,0.99847 0,0 -1.0458,1.92297 -1.0458,1.92297 0,0 -1.1053,2.03391 -1.1053,2.03391 0,0 -2.5657,4.69648 -2.5657,4.69648 0,0 -1.4692,2.69957 -1.4692,2.69957 0,0 -1.4719,2.69955 -1.4719,2.69955 0,0 -0.3831,0.70262 -0.3831,0.70262 -0.034,0.0614 -0.1472,0.25369 -0.1457,0.31655 0,0.10208 0.1668,0.20487 0.2411,0.26146 0,0 0.7766,0.60055 0.7766,0.60055 0,0 3.0694,2.37636 3.0694,2.37636 0,0 3.2172,2.49431 3.2172,2.49431 0,0 6.9153,5.35363 6.9153,5.35363 0,0 2.2189,1.72069 2.2189,1.72069 0.2122,0.16345 0.9248,0.67452 1.035,0.85535 0.1184,0.19378 0.051,0.35576 0.07,0.51735 0,0 0.049,0.25886 0.049,0.25886 0.054,0.63569 -0.7473,0.6479 -1.1911,0.73961 0,0 -4.1418,0.86533 -4.1418,0.86533 0,0 -2.7365,0.5769 -2.7365,0.5769 0,0 -2.1079,0.44376 -2.1079,0.44376 0,0 0.7193,1.18337 0.7193,1.18337 0,0 1.6548,2.73654 1.6548,2.73654 0,0 5.7316,9.4669315 5.7316,9.4669315 0,0 1.2503,2.0709 1.2503,2.0709 0,0 0.6268,1.03322 0.6268,1.03322 0.1727,0.23668 0.3743,0.10614 0.5569,0.37535 0.2197,0.32469 0.036,0.78546001 -0.3701,0.80875001 -0.2888,0.0163 -1.1379,-0.21078001 -1.4792,-0.27957001 0,0 -3.3652,-0.73886 -3.3652,-0.73886 0,0 -10.2805,-2.24988 -10.2805,-2.24988 0,0 -3.4392,-0.75328 -3.4392,-0.75328 -0.362,-0.0781 -1.0329,-0.12019 -1.1593,-0.52549 -0.1335,-0.42749 0.2536,-0.57874 0.3465,-0.7780603 0,0 1.3409,-2.36526 1.3409,-2.36526 0,0 3.5242,-6.0647512 3.5242,-6.0647512 0,0 1.3313,-2.29279 1.3313,-2.29279 0,0 0.6812,-1.14638 0.6812,-1.14638 0,0 -1.4053,0.29584 -1.4053,0.29584 0,0 -4.3637,0.90972 -4.3637,0.90972 -0.3132,0.0632 -1.0535,0.25109 -1.3312,0.2352 -0.2245,-0.0129 -0.3846,-0.15569 -0.4512,-0.36833 -0.033,-0.10687 -0.03,-0.22225 -0.03,-0.33282 0,0 0,-0.51772 0,-0.51772 0,0 0.037,-0.55471 0.037,-0.55471 0,0 0,-2.55163 0,-2.55163 0,0 0.037,-0.70263 0.037,-0.70263 0,0 0,-2.73654 0,-2.73654 0,0 0.037,-0.5547 0.037,-0.5547 0,0 0,-2.55163 0,-2.55163 0,0 0.037,-0.70262 0.037,-0.70262 0,0 0,-2.21882 0,-2.21882 0,0 0,-0.99846 0,-0.99846 -0.061,0.21521 -0.294,0.60092 -0.412,0.81356 0,0 -0.6656,1.22035 -0.6656,1.22035 0,0 -2.1315,3.9199 -2.1315,3.9199 0,0 -0.7515,1.36827 -0.7515,1.36827 -0.1313,0.19414 -0.3069,0.3232 -0.551,0.28808 -0.4678,-0.0674 -0.4201,-0.50774 -0.4737,-0.65788 -0.031,-0.0877 -0.1154,-0.21596 -0.1675,-0.29585 0,0 -1.8435,-2.84747 -1.8435,-2.84747 0,0 -1.0769,-1.66411 -1.0769,-1.66411 0,0 -2.3667,-3.66105 -2.3667,-3.66105 0,0 -2.6996,-4.17875 -2.6996,-4.17875 z m 5.3621,-29.25137 c 0,0 -0.037,0 -0.037,0 0,0 0.037,0.037 0.037,0.037 z m -4.4006,24.99863 c 0,0 -0.037,0 -0.037,0 0,0 0.037,0.037 0.037,0.037 z"
         style="fill:#000000;fill-opacity:1"
         inkscape:label="path31"
         transform="translate(-1481.05)" />
    </g>
    <g
       id="Regular-S"
       transform="matrix(1 0 0 1 1409.41 696)">
      <path
         id="Selection #1-7"
         fill="none"
         stroke="#000000"
         stroke-width="0.0369802"
         d="m 39.243993,-39.008658 c 0,0 -0.39124,1.849 -0.39124,1.849 0,0 -0.85055,3.88293 -0.85055,3.88293 0,0 -1.59015,7.24812 -1.59015,7.24812 0,0 -0.68562,3.14331 -0.68562,3.14331 0,0 -0.81689,3.73501 -0.81689,3.73501 -0.0189,0.0881 -0.0566,0.20893 -0.0392,0.29584 0.0196,0.0995 0.098,0.17343 0.13202,0.33282 0.0562,0.26034 -0.0984,0.50737 -0.34391,0.5976 -0.33468,0.12352 -0.75256,0.20118 -0.94041,-0.19081 -0.0917,-0.19119 -0.0133,-0.28919 -0.11279,-0.44376 0,0 -0.73739,-0.81358 -0.73739,-0.81358 0,0 -0.4249,-0.44375 -0.4249,-0.44375 0,0 -1.62713,-1.73808 -1.62713,-1.73808 0,0 -1.59014,-1.70109 -1.59014,-1.70109 0,0 -0.85424,-0.9245 -0.85424,-0.9245 0,0 -1.55614,-1.66411 -1.55614,-1.66411 0,0 -2.14485,-2.29277 -2.14485,-2.29277 0,0 -7.87014,-8.39452 -7.87014,-8.39452 0,0 -2.69955,-2.88445 -2.69955,-2.88445 0,0 -1.33609,-1.44223 -1.33609,-1.44223 0,0 -2.66442,-2.84747 -2.66442,-2.84747 0,0 -1.5284102,-1.62714 -1.5284102,-1.62714 0,0 -1.00956,-1.07243 -1.00956,-1.07243 -0.14236,-0.16196 -0.31987,-0.32912 -0.3391,-0.5547 -0.0133,-0.15162 0.0284,-0.22484 0.0281,-0.31137 -8.4e-4,-0.10799 -0.0843,-0.33282 0.0215,-0.53844 0.0947,-0.18379 0.32764,-0.28659 0.50108,-0.38607 0,0 1.14638,-0.66047 1.14638,-0.66047 0,0 5.2511902,-3.03755 5.2511902,-3.03755 0,0 9.5409,-5.51597 9.5409,-5.51597 0,0 13.23892,-7.64899 13.23892,-7.64899 0,0 6.36059,-3.67695 6.36059,-3.67695 0,0 0.99848,-0.57578 0.99848,-0.57578 0.40826,-0.23704 0.55581,-0.41787 1.03544,-0.26181 0.11612,0.0376 0.19673,0.0555 0.29215,0.13977 0.095,0.0839 0.16234,0.196 0.18083,0.32247 0.0281,0.19563 -0.1642,0.90566 -0.21411,1.1464 0,0 -0.92895,4.25272 -0.92895,4.25272 0,0 -1.15748,5.28818 -1.15748,5.28818 0,0 -1.52211,6.91529 -1.52211,6.91529 0,0 -0.77658,3.5501 -0.77658,3.5501 0,0 -0.42231,1.92297 -0.42231,1.92297 0,0 15.97545,-4.749 15.97545,-4.749 0,0 4.88139,-1.45331 4.88139,-1.45331 0,0 1.55317,-0.46485 1.55317,-0.46485 0.18231,-0.0525 0.61573,-0.19673 0.77659,-0.20745 0.28105,-0.0193 0.50625,0.11869 0.57245,0.40308 0.0322,0.14126 -0.007,0.2215 0,0.33281 0.009,0.12722 0.0769,0.2352 0.0418,0.40679 -0.0348,0.17084 -0.40197,0.80654 -0.50847,0.99847 0,0 -1.0458,1.92297 -1.0458,1.92297 0,0 -1.10534,2.03391 -1.10534,2.03391 0,0 -2.56569,4.69648 -2.56569,4.69648 0,0 -1.46921,2.69957 -1.46921,2.69957 0,0 -1.47183,2.69955 -1.47183,2.69955 0,0 -0.38311,0.70262 -0.38311,0.70262 -0.0344,0.0614 -0.14718,0.25369 -0.14571,0.31655 0.002,0.10208 0.16679,0.20487 0.24113,0.26146 0,0 0.77657,0.60055 0.77657,0.60055 0,0 3.06936,2.37636 3.06936,2.37636 0,0 3.21728,2.49431 3.21728,2.49431 0,0 6.9153,5.35363 6.9153,5.35363 0,0 2.21882,1.72069 2.21882,1.72069 0.21226,0.16345 0.92487,0.67452 1.03507,0.85535 0.11834,0.19378 0.0513,0.35576 0.0699,0.51735 0,0 0.0492,0.25886 0.0492,0.25886 0.0544,0.63569 -0.74736,0.6479 -1.19113,0.73961 0,0 -4.14179,0.86533 -4.14179,0.86533 0,0 -2.73653,0.5769 -2.73653,0.5769 0,0 -2.10788,0.44376 -2.10788,0.44376 0,0 0.71927,1.18337 0.71927,1.18337 0,0 1.65487,2.73654 1.65487,2.73654 0,0 5.73157,9.4669306 5.73157,9.4669306 0,0 1.25029,2.0709 1.25029,2.0709 0,0 0.62681,1.03322 0.62681,1.03322 0.17271,0.23668 0.37425,0.10614 0.55693,0.37535 0.21966,0.32469 0.0362,0.78546002 -0.37017,0.80875002 -0.28882,0.0163 -1.13788,-0.21078002 -1.47921,-0.27957002 0,0 -3.3652,-0.73886 -3.3652,-0.73886 0,0 -10.28051,-2.24988 -10.28051,-2.24988 0,0 -3.43916,-0.75328 -3.43916,-0.75328 -0.36203,-0.0781 -1.03285,-0.12019 -1.15933,-0.52549 -0.1335,-0.42749 0.25368,-0.57874 0.3465,-0.77806 0,0 1.34092,-2.36526 1.34092,-2.36526 0,0 3.52421,-6.0647506 3.52421,-6.0647506 0,0 1.33129,-2.29279 1.33129,-2.29279 0,0 0.68117,-1.14638 0.68117,-1.14638 0,0 -1.40525,0.29584 -1.40525,0.29584 0,0 -4.36367,0.90972 -4.36367,0.90972 -0.31322,0.0632 -1.05356,0.25109 -1.33128,0.2352 -0.22447,-0.0129 -0.3846,-0.15569 -0.45116,-0.36833 -0.0332,-0.10687 -0.0296,-0.22225 -0.0296,-0.33282 0,0 0,-0.51772 0,-0.51772 0,0 0.037,-0.55471 0.037,-0.55471 0,0 0,-2.55163 0,-2.55163 0,0 0.037,-0.70263 0.037,-0.70263 0,0 0,-2.73654 0,-2.73654 0,0 0.037,-0.5547 0.037,-0.5547 0,0 0,-2.55163 0,-2.55163 0,0 0.037,-0.70262 0.037,-0.70262 0,0 0,-2.21882 0,-2.21882 0,0 0,-0.99846 0,-0.99846 -0.0614,0.21521 -0.294,0.60092 -0.41197,0.81356 0,0 -0.66564,1.22035 -0.66564,1.22035 0,0 -2.13153,3.9199 -2.13153,3.9199 0,0 -0.75145,1.36827 -0.75145,1.36827 -0.13128,0.19414 -0.30693,0.3232 -0.55101,0.28808 -0.46779,-0.0674 -0.42009,-0.50774 -0.4737,-0.65788 -0.0314,-0.0877 -0.11539,-0.21596 -0.16752,-0.29585 0,0 -1.84347,-2.84747 -1.84347,-2.84747 0,0 -1.07686,-1.66411 -1.07686,-1.66411 0,0 -2.36674,-3.66105 -2.36674,-3.66105 0,0 -2.69956,-4.17875 -2.69956,-4.17875 z m 5.36214,-29.25137 c 0,0 -0.037,0 -0.037,0 0,0 0.037,0.037 0.037,0.037 z m -4.40065,24.99863 c 0,0 -0.037,0 -0.037,0 0,0 0.037,0.037 0.037,0.037 z"
         style="fill:#000000;fill-opacity:1"
         inkscape:label="path31-2" />
    </g>
    <g
       id="Ultralight-S"
       transform="matrix(1 0 0 1 521.143 696)">
      <path
         id="Selection #1"
         fill="none"
         stroke="#000000"
         stroke-width="0.0369802"
         d="m 558.6086,656.81586 c 0,0 -0.39124,1.849 -0.39124,1.849 0,0 -0.85055,3.88293 -0.85055,3.88293 0,0 -1.59015,7.24812 -1.59015,7.24812 0,0 -0.68562,3.14331 -0.68562,3.14331 0,0 -0.81689,3.73501 -0.81689,3.73501 -0.0189,0.0881 -0.0566,0.20893 -0.0392,0.29584 0.0196,0.0995 0.098,0.17343 0.13202,0.33282 0.0562,0.26034 -0.0984,0.50737 -0.34391,0.5976 -0.33468,0.12352 -0.75256,0.20118 -0.94041,-0.19081 -0.0917,-0.19119 -0.0133,-0.28919 -0.11279,-0.44376 0,0 -0.73739,-0.81358 -0.73739,-0.81358 0,0 -0.4249,-0.44375 -0.4249,-0.44375 0,0 -1.62713,-1.73808 -1.62713,-1.73808 0,0 -1.59014,-1.70109 -1.59014,-1.70109 0,0 -0.85424,-0.9245 -0.85424,-0.9245 0,0 -1.55614,-1.66411 -1.55614,-1.66411 0,0 -2.14485,-2.29277 -2.14485,-2.29277 0,0 -7.87014,-8.39452 -7.87014,-8.39452 0,0 -2.69955,-2.88445 -2.69955,-2.88445 0,0 -1.33609,-1.44223 -1.33609,-1.44223 0,0 -2.66442,-2.84747 -2.66442,-2.84747 0,0 -1.52841,-1.62714 -1.52841,-1.62714 0,0 -1.00956,-1.07243 -1.00956,-1.07243 -0.14236,-0.16196 -0.31987,-0.32912 -0.3391,-0.5547 -0.0133,-0.15162 0.0284,-0.22484 0.0281,-0.31137 -8.4e-4,-0.10799 -0.0843,-0.33282 0.0215,-0.53844 0.0947,-0.18379 0.32764,-0.28659 0.50108,-0.38607 0,0 1.14638,-0.66047 1.14638,-0.66047 0,0 5.25119,-3.03755 5.25119,-3.03755 0,0 9.5409,-5.51597 9.5409,-5.51597 0,0 13.23892,-7.64899 13.23892,-7.64899 0,0 6.36059,-3.67695 6.36059,-3.67695 0,0 0.99848,-0.57578 0.99848,-0.57578 0.40826,-0.23704 0.55581,-0.41787 1.03544,-0.26181 0.11612,0.0376 0.19673,0.0555 0.29215,0.13977 0.095,0.0839 0.16234,0.196 0.18083,0.32247 0.0281,0.19563 -0.1642,0.90566 -0.21411,1.1464 0,0 -0.92895,4.25272 -0.92895,4.25272 0,0 -1.15748,5.28818 -1.15748,5.28818 0,0 -1.52211,6.91529 -1.52211,6.91529 0,0 -0.77658,3.5501 -0.77658,3.5501 0,0 -0.42231,1.92297 -0.42231,1.92297 0,0 15.97545,-4.749 15.97545,-4.749 0,0 4.88139,-1.45331 4.88139,-1.45331 0,0 1.55317,-0.46485 1.55317,-0.46485 0.18231,-0.0525 0.61573,-0.19673 0.77659,-0.20745 0.28105,-0.0193 0.50625,0.11869 0.57245,0.40308 0.0322,0.14126 -0.007,0.2215 0,0.33281 0.009,0.12722 0.0769,0.2352 0.0418,0.40679 -0.0348,0.17084 -0.40197,0.80654 -0.50847,0.99847 0,0 -1.0458,1.92297 -1.0458,1.92297 0,0 -1.10534,2.03391 -1.10534,2.03391 0,0 -2.56569,4.69648 -2.56569,4.69648 0,0 -1.46921,2.69957 -1.46921,2.69957 0,0 -1.47183,2.69955 -1.47183,2.69955 0,0 -0.38311,0.70262 -0.38311,0.70262 -0.0344,0.0614 -0.14718,0.25369 -0.14571,0.31655 0.002,0.10208 0.16679,0.20487 0.24113,0.26146 0,0 0.77657,0.60055 0.77657,0.60055 0,0 3.06936,2.37636 3.06936,2.37636 0,0 3.21728,2.49431 3.21728,2.49431 0,0 6.9153,5.35363 6.9153,5.35363 0,0 2.21882,1.72069 2.21882,1.72069 0.21226,0.16345 0.92487,0.67452 1.03507,0.85535 0.11834,0.19378 0.0513,0.35576 0.0699,0.51735 0,0 0.0492,0.25886 0.0492,0.25886 0.0544,0.63569 -0.74736,0.6479 -1.19113,0.73961 0,0 -4.14179,0.86533 -4.14179,0.86533 0,0 -2.73653,0.5769 -2.73653,0.5769 0,0 -2.10788,0.44376 -2.10788,0.44376 0,0 0.71927,1.18337 0.71927,1.18337 0,0 1.65487,2.73654 1.65487,2.73654 0,0 5.73157,9.46693 5.73157,9.46693 0,0 1.25029,2.0709 1.25029,2.0709 0,0 0.62681,1.03322 0.62681,1.03322 0.17271,0.23668 0.37425,0.10614 0.55693,0.37535 0.21966,0.32469 0.0362,0.78546 -0.37017,0.80875 -0.28882,0.0163 -1.13788,-0.21078 -1.47921,-0.27957 0,0 -3.3652,-0.73886 -3.3652,-0.73886 0,0 -10.28051,-2.24988 -10.28051,-2.24988 0,0 -3.43916,-0.75328 -3.43916,-0.75328 -0.36203,-0.0781 -1.03285,-0.12019 -1.15933,-0.52549 -0.1335,-0.42749 0.25368,-0.57874 0.3465,-0.77806 0,0 1.34092,-2.36526 1.34092,-2.36526 0,0 3.52421,-6.06475 3.52421,-6.06475 0,0 1.33129,-2.29279 1.33129,-2.29279 0,0 0.68117,-1.14638 0.68117,-1.14638 0,0 -1.40525,0.29584 -1.40525,0.29584 0,0 -4.36367,0.90972 -4.36367,0.90972 -0.31322,0.0632 -1.05356,0.25109 -1.33128,0.2352 -0.22447,-0.0129 -0.3846,-0.15569 -0.45116,-0.36833 -0.0332,-0.10687 -0.0296,-0.22225 -0.0296,-0.33282 0,0 0,-0.51772 0,-0.51772 0,0 0.037,-0.55471 0.037,-0.55471 0,0 0,-2.55163 0,-2.55163 0,0 0.037,-0.70263 0.037,-0.70263 0,0 0,-2.73654 0,-2.73654 0,0 0.037,-0.5547 0.037,-0.5547 0,0 0,-2.55163 0,-2.55163 0,0 0.037,-0.70262 0.037,-0.70262 0,0 0,-2.21882 0,-2.21882 0,0 0,-0.99846 0,-0.99846 -0.0614,0.21521 -0.294,0.60092 -0.41197,0.81356 0,0 -0.66564,1.22035 -0.66564,1.22035 0,0 -2.13153,3.9199 -2.13153,3.9199 0,0 -0.75145,1.36827 -0.75145,1.36827 -0.13128,0.19414 -0.30693,0.3232 -0.55101,0.28808 -0.46779,-0.0674 -0.42009,-0.50774 -0.4737,-0.65788 -0.0314,-0.0877 -0.11539,-0.21596 -0.16752,-0.29585 0,0 -1.84347,-2.84747 -1.84347,-2.84747 0,0 -1.07686,-1.66411 -1.07686,-1.66411 0,0 -2.36674,-3.66105 -2.36674,-3.66105 0,0 -2.69956,-4.17875 -2.69956,-4.17875 z m 5.36214,-29.25137 c 0,0 -0.037,0 -0.037,0 0,0 0.037,0.037 0.037,0.037 z m -4.40065,24.99863 c 0,0 -0.037,0 -0.037,0 0,0 0.037,0.037 0.037,0.037 z"
         style="fill:#000000;fill-opacity:1"
         inkscape:label="path31-1"
         transform="translate(-521.143,-696)" />
    </g>
  </g>
</svg>
